<svg width="127" height="25" viewBox="0 0 127 25" fill="none" xmlns="http://www.w3.org/2000/svg">
<rect x="0.5" y="0.5" width="125.318" height="23.2773" rx="1.5" fill="#F4F4F4" stroke="#D7D7D7"/>
<path d="M25.6616 17.1387V6.95685H29.3903C30.1128 6.95685 30.7111 7.07617 31.185 7.31481C31.659 7.55013 32.0136 7.86997 32.2489 8.27433C32.4843 8.67537 32.6019 9.12778 32.6019 9.63157C32.6019 10.0558 32.524 10.4138 32.3683 10.7054C32.2125 10.9938 32.0037 11.2258 31.7418 11.4015C31.4833 11.5738 31.1983 11.6998 30.8867 11.7793V11.8787C31.2248 11.8953 31.5546 12.0047 31.8761 12.2069C32.2009 12.4057 32.4693 12.6891 32.6815 13.057C32.8936 13.4249 32.9996 13.8723 32.9996 14.3993C32.9996 14.9197 32.877 15.387 32.6317 15.8013C32.3898 16.2123 32.0153 16.5388 31.5082 16.7807C31.0011 17.0194 30.3531 17.1387 29.5643 17.1387H25.6616ZM27.1978 15.8212H29.4151C30.1509 15.8212 30.6779 15.6787 30.9961 15.3936C31.3143 15.1086 31.4734 14.7523 31.4734 14.3248C31.4734 14.0033 31.3922 13.7083 31.2298 13.4398C31.0674 13.1713 30.8353 12.9576 30.5337 12.7985C30.2354 12.6394 29.8808 12.5598 29.4698 12.5598H27.1978V15.8212ZM27.1978 11.3617H29.256C29.6007 11.3617 29.9106 11.2954 30.1857 11.1628C30.4641 11.0302 30.6845 10.8446 30.8469 10.606C31.0127 10.3641 31.0955 10.079 31.0955 9.75089C31.0955 9.32996 30.948 8.97698 30.6531 8.69194C30.3581 8.4069 29.9057 8.26438 29.2958 8.26438H27.1978V11.3617ZM37.5736 17.2928C36.8212 17.2928 36.1733 17.132 35.6297 16.8105C35.0895 16.4857 34.6719 16.03 34.3769 15.4434C34.0852 14.8534 33.9394 14.1623 33.9394 13.3702C33.9394 12.588 34.0852 11.8986 34.3769 11.302C34.6719 10.7054 35.0828 10.2398 35.6098 9.90501C36.1401 9.57025 36.7599 9.40288 37.4692 9.40288C37.9001 9.40288 38.3177 9.47414 38.722 9.61665C39.1264 9.75917 39.4893 9.9829 39.8108 10.2878C40.1323 10.5927 40.3859 10.9888 40.5715 11.476C40.7571 11.9599 40.8499 12.5482 40.8499 13.2409V13.7679H34.7796V12.6543H39.3932C39.3932 12.2632 39.3137 11.9168 39.1546 11.6152C38.9955 11.3103 38.7718 11.07 38.4834 10.8944C38.1984 10.7187 37.8636 10.6309 37.4791 10.6309C37.0615 10.6309 36.697 10.7336 36.3854 10.9391C36.0772 11.1413 35.8385 11.4064 35.6695 11.7346C35.5038 12.0594 35.4209 12.4123 35.4209 12.7935V13.6635C35.4209 14.1739 35.5104 14.6081 35.6894 14.9661C35.8717 15.324 36.1252 15.5975 36.45 15.7864C36.7748 15.972 37.1543 16.0648 37.5885 16.0648C37.8702 16.0648 38.1271 16.025 38.3591 15.9455C38.5911 15.8626 38.7916 15.74 38.9607 15.5776C39.1297 15.4152 39.259 15.2147 39.3485 14.976L40.7554 15.2296C40.6427 15.6439 40.4406 16.0068 40.1489 16.3184C39.8605 16.6266 39.4976 16.8669 39.0601 17.0392C38.6259 17.2083 38.1304 17.2928 37.5736 17.2928ZM45.2809 20.1614C44.6744 20.1614 44.1524 20.0819 43.7149 19.9228C43.2807 19.7637 42.926 19.5532 42.6509 19.2914C42.3758 19.0295 42.1704 18.7428 42.0345 18.4313L43.3122 17.9043C43.4017 18.0501 43.521 18.2042 43.6701 18.3667C43.8226 18.5324 44.0281 18.6732 44.2866 18.7892C44.5484 18.9052 44.8848 18.9632 45.2958 18.9632C45.8593 18.9632 46.325 18.8257 46.6928 18.5506C47.0607 18.2788 47.2447 17.8446 47.2447 17.248V15.7466H47.1502C47.0607 15.909 46.9315 16.0897 46.7625 16.2885C46.5967 16.4874 46.368 16.6597 46.0764 16.8056C45.7847 16.9514 45.4052 17.0243 44.9379 17.0243C44.3347 17.0243 43.7911 16.8835 43.3072 16.6017C42.8266 16.3167 42.4455 15.8974 42.1637 15.3439C41.8853 14.7871 41.7461 14.1027 41.7461 13.2907C41.7461 12.4786 41.8837 11.7826 42.1588 11.2026C42.4372 10.6226 42.8183 10.1784 43.3022 9.87021C43.7861 9.55865 44.3347 9.40288 44.9478 9.40288C45.4218 9.40288 45.8046 9.48242 46.0963 9.64151C46.3879 9.79729 46.615 9.97958 46.7774 10.1884C46.9431 10.3972 47.0707 10.5811 47.1602 10.7402H47.2696V9.50231H48.7262V17.3077C48.7262 17.964 48.5738 18.5025 48.2688 18.9235C47.9639 19.3444 47.5513 19.656 47.0309 19.8581C46.5139 20.0603 45.9305 20.1614 45.2809 20.1614ZM45.266 15.7914C45.6936 15.7914 46.0548 15.6919 46.3498 15.4931C46.6481 15.2909 46.8735 15.0025 47.0259 14.628C47.1817 14.2502 47.2596 13.7978 47.2596 13.2708C47.2596 12.757 47.1834 12.3046 47.0309 11.9135C46.8785 11.5224 46.6547 11.2175 46.3598 10.9988C46.0648 10.7767 45.7002 10.6657 45.266 10.6657C44.8186 10.6657 44.4457 10.7817 44.1474 11.0137C43.8491 11.2424 43.6237 11.5539 43.4713 11.9483C43.3221 12.3427 43.2475 12.7836 43.2475 13.2708C43.2475 13.7712 43.3238 14.2104 43.4762 14.5882C43.6287 14.9661 43.8541 15.2611 44.1524 15.4732C44.454 15.6853 44.8252 15.7914 45.266 15.7914ZM50.2998 17.1387V9.50231H51.7863V17.1387H50.2998ZM51.0505 8.32404C50.792 8.32404 50.57 8.23787 50.3844 8.06552C50.2021 7.88986 50.1109 7.68105 50.1109 7.4391C50.1109 7.19383 50.2021 6.98503 50.3844 6.81268C50.57 6.63701 50.792 6.54918 51.0505 6.54918C51.3091 6.54918 51.5295 6.63701 51.7118 6.81268C51.8974 6.98503 51.9902 7.19383 51.9902 7.4391C51.9902 7.68105 51.8974 7.88986 51.7118 8.06552C51.5295 8.23787 51.3091 8.32404 51.0505 8.32404ZM54.8527 12.6046V17.1387H53.3662V9.50231H54.793V10.7452H54.8875C55.0631 10.3408 55.3382 10.016 55.7128 9.77077C56.0906 9.52551 56.5662 9.40288 57.1396 9.40288C57.66 9.40288 58.1157 9.51225 58.5068 9.731C58.8979 9.94644 59.2012 10.2679 59.4166 10.6955C59.632 11.123 59.7397 11.6517 59.7397 12.2814V17.1387H58.2532V12.4604C58.2532 11.9069 58.1091 11.4744 57.8207 11.1628C57.5324 10.848 57.1363 10.6905 56.6325 10.6905C56.2878 10.6905 55.9812 10.7651 55.7128 10.9142C55.4476 11.0634 55.2371 11.2821 55.0814 11.5705C54.9289 11.8555 54.8527 12.2002 54.8527 12.6046ZM62.7999 12.6046V17.1387H61.3134V9.50231H62.7402V10.7452H62.8347C63.0103 10.3408 63.2854 10.016 63.6599 9.77077C64.0378 9.52551 64.5134 9.40288 65.0868 9.40288C65.6072 9.40288 66.0629 9.51225 66.454 9.731C66.8451 9.94644 67.1483 10.2679 67.3638 10.6955C67.5792 11.123 67.6869 11.6517 67.6869 12.2814V17.1387H66.2004V12.4604C66.2004 11.9069 66.0563 11.4744 65.7679 11.1628C65.4795 10.848 65.0835 10.6905 64.5797 10.6905C64.235 10.6905 63.9284 10.7651 63.6599 10.9142C63.3948 11.0634 63.1843 11.2821 63.0286 11.5705C62.8761 11.8555 62.7999 12.2002 62.7999 12.6046ZM72.5517 17.2928C71.7994 17.2928 71.1514 17.132 70.6078 16.8105C70.0676 16.4857 69.65 16.03 69.355 15.4434C69.0633 14.8534 68.9175 14.1623 68.9175 13.3702C68.9175 12.588 69.0633 11.8986 69.355 11.302C69.65 10.7054 70.061 10.2398 70.588 9.90501C71.1183 9.57025 71.738 9.40288 72.4473 9.40288C72.8782 9.40288 73.2958 9.47414 73.7002 9.61665C74.1045 9.75917 74.4675 9.9829 74.7889 10.2878C75.1104 10.5927 75.364 10.9888 75.5496 11.476C75.7352 11.9599 75.828 12.5482 75.828 13.2409V13.7679H69.7577V12.6543H74.3713C74.3713 12.2632 74.2918 11.9168 74.1327 11.6152C73.9736 11.3103 73.7499 11.07 73.4615 10.8944C73.1765 10.7187 72.8417 10.6309 72.4573 10.6309C72.0397 10.6309 71.6751 10.7336 71.3635 10.9391C71.0553 11.1413 70.8166 11.4064 70.6476 11.7346C70.4819 12.0594 70.399 12.4123 70.399 12.7935V13.6635C70.399 14.1739 70.4885 14.6081 70.6675 14.9661C70.8498 15.324 71.1033 15.5975 71.4282 15.7864C71.753 15.972 72.1325 16.0648 72.5666 16.0648C72.8484 16.0648 73.1052 16.025 73.3372 15.9455C73.5693 15.8626 73.7698 15.74 73.9388 15.5776C74.1078 15.4152 74.2371 15.2147 74.3266 14.976L75.7336 15.2296C75.6209 15.6439 75.4187 16.0068 75.127 16.3184C74.8387 16.6266 74.4757 16.8669 74.0382 17.0392C73.6041 17.2083 73.1086 17.2928 72.5517 17.2928ZM77.0573 17.1387V9.50231H78.4941V10.7154H78.5737C78.7129 10.3044 78.9581 9.98124 79.3095 9.74592C79.6641 9.50728 80.0652 9.38796 80.5126 9.38796C80.6054 9.38796 80.7148 9.39128 80.8407 9.3979C80.97 9.40453 81.0711 9.41282 81.144 9.42276V10.8446C81.0843 10.8281 80.9783 10.8098 80.8258 10.79C80.6733 10.7667 80.5209 10.7551 80.3684 10.7551C80.0171 10.7551 79.7039 10.8297 79.4288 10.9789C79.157 11.1247 78.9416 11.3285 78.7825 11.5904C78.6234 11.8489 78.5438 12.1439 78.5438 12.4753V17.1387H77.0573ZM85.4148 17.1387V6.95685H86.951V15.8162H91.5646V17.1387H85.4148ZM96.069 17.2928C95.3166 17.2928 94.6687 17.132 94.1251 16.8105C93.5849 16.4857 93.1672 16.03 92.8723 15.4434C92.5806 14.8534 92.4348 14.1623 92.4348 13.3702C92.4348 12.588 92.5806 11.8986 92.8723 11.302C93.1672 10.7054 93.5782 10.2398 94.1052 9.90501C94.6355 9.57025 95.2553 9.40288 95.9646 9.40288C96.3955 9.40288 96.8131 9.47414 97.2174 9.61665C97.6218 9.75917 97.9847 9.9829 98.3062 10.2878C98.6277 10.5927 98.8813 10.9888 99.0669 11.476C99.2525 11.9599 99.3453 12.5482 99.3453 13.2409V13.7679H93.275V12.6543H97.8886C97.8886 12.2632 97.8091 11.9168 97.65 11.6152C97.4909 11.3103 97.2672 11.07 96.9788 10.8944C96.6938 10.7187 96.359 10.6309 95.9745 10.6309C95.5569 10.6309 95.1923 10.7336 94.8808 10.9391C94.5726 11.1413 94.3339 11.4064 94.1649 11.7346C93.9992 12.0594 93.9163 12.4123 93.9163 12.7935V13.6635C93.9163 14.1739 94.0058 14.6081 94.1848 14.9661C94.3671 15.324 94.6206 15.5975 94.9454 15.7864C95.2702 15.972 95.6497 16.0648 96.0839 16.0648C96.3656 16.0648 96.6225 16.025 96.8545 15.9455C97.0865 15.8626 97.287 15.74 97.4561 15.5776C97.6251 15.4152 97.7544 15.2147 97.8439 14.976L99.2508 15.2296C99.1381 15.6439 98.936 16.0068 98.6443 16.3184C98.3559 16.6266 97.993 16.8669 97.5555 17.0392C97.1213 17.2083 96.6258 17.2928 96.069 17.2928ZM106.889 9.50231L104.119 17.1387H102.528L99.7543 9.50231H101.35L103.284 15.3787H103.364L105.293 9.50231H106.889ZM110.897 17.2928C110.145 17.2928 109.497 17.132 108.953 16.8105C108.413 16.4857 107.995 16.03 107.7 15.4434C107.409 14.8534 107.263 14.1623 107.263 13.3702C107.263 12.588 107.409 11.8986 107.7 11.302C107.995 10.7054 108.406 10.2398 108.933 9.90501C109.463 9.57025 110.083 9.40288 110.793 9.40288C111.223 9.40288 111.641 9.47414 112.045 9.61665C112.45 9.75917 112.813 9.9829 113.134 10.2878C113.456 10.5927 113.709 10.9888 113.895 11.476C114.08 11.9599 114.173 12.5482 114.173 13.2409V13.7679H108.103V12.6543H112.717C112.717 12.2632 112.637 11.9168 112.478 11.6152C112.319 11.3103 112.095 11.07 111.807 10.8944C111.522 10.7187 111.187 10.6309 110.803 10.6309C110.385 10.6309 110.02 10.7336 109.709 10.9391C109.401 11.1413 109.162 11.4064 108.993 11.7346C108.827 12.0594 108.744 12.4123 108.744 12.7935V13.6635C108.744 14.1739 108.834 14.6081 109.013 14.9661C109.195 15.324 109.449 15.5975 109.773 15.7864C110.098 15.972 110.478 16.0648 110.912 16.0648C111.194 16.0648 111.45 16.025 111.682 15.9455C111.914 15.8626 112.115 15.74 112.284 15.5776C112.453 15.4152 112.582 15.2147 112.672 14.976L114.079 15.2296C113.966 15.6439 113.764 16.0068 113.472 16.3184C113.184 16.6266 112.821 16.8669 112.383 17.0392C111.949 17.2083 111.454 17.2928 110.897 17.2928ZM116.889 6.95685V17.1387H115.403V6.95685H116.889Z" fill="#222222"/>
<line x1="8.13086" y1="11.5898" x2="8.13114" y2="16.6656" stroke="#3E6FEE" stroke-width="2.5"/>
<line x1="12.8926" y1="8.5791" x2="12.8926" y2="16.6657" stroke="#B6B4B4" stroke-width="2.5"/>
<line x1="17.4922" y1="5.40381" x2="17.4922" y2="16.6654" stroke="#B6B4B4" stroke-width="2.5"/>
</svg>
