<svg width="20" height="20" viewBox="0 0 20 20" fill="none" xmlns="http://www.w3.org/2000/svg">
<g clip-path="url(#clip0_5037_1042)">
<path d="M15.4206 10.6267C15.4206 10.6267 15.4365 5.90343 15.4206 5.88535C15.4605 5.17926 15.2348 4.4833 14.7867 3.93018C14.7867 3.93018 12.5582 1.67396 12.5129 1.6619C11.9148 1.0967 11.1151 0.785378 10.2857 0.794376H2.9602C2.75791 0.782566 2.55528 0.814747 2.36705 0.888544C2.17881 0.962341 2.00939 1.07624 1.87086 1.22166C1.73232 1.36709 1.6282 1.54065 1.5656 1.73017C1.503 1.91969 1.48355 2.11983 1.50874 2.31755C1.51732 2.34648 1.50874 15.9213 1.50874 15.9213C1.50312 16.1091 1.53741 16.2956 1.6087 16.4699C1.67999 16.6441 1.78666 16.802 1.92293 16.9337C2.0592 17.0653 2.2221 17.168 2.40056 17.235C2.57903 17.302 2.76939 17.3322 2.9602 17.3233C2.9602 17.3329 12.031 17.3233 12.031 17.3233" stroke="#199950"/>
<path d="M15.2457 19.1882C17.8149 19.1882 19.8976 17.1402 19.8976 14.6139C19.8976 12.0875 17.8149 10.0396 15.2457 10.0396C12.6765 10.0396 10.5938 12.0875 10.5938 14.6139C10.5938 17.1402 12.6765 19.1882 15.2457 19.1882Z" fill="#199950"/>
<path d="M13.7656 14.3918L14.7742 15.4053L16.6961 13.416" stroke="white" stroke-linecap="round" stroke-linejoin="round"/>
<path d="M4.07031 5.33643H7.48677" stroke="#199950" stroke-linecap="round"/>
<path d="M10.4902 5.33643H11.2797" stroke="#199950" stroke-linecap="round"/>
<path d="M4.07031 8.5498H7.48677" stroke="#199950" stroke-linecap="round"/>
<path d="M10.4902 8.5498H11.2797" stroke="#199950" stroke-linecap="round"/>
<path d="M4.07031 11.5994H7.48677" stroke="#199950" stroke-linecap="round"/>
</g>
<defs>
<clipPath id="clip0_5037_1042">
<rect width="19" height="19" fill="white" transform="translate(0.896484 0.187988)"/>
</clipPath>
</defs>
</svg>
