<svg width="13" height="8" viewBox="0 0 13 8" fill="none" xmlns="http://www.w3.org/2000/svg">
<path d="M6.4343 7.23859C6.68819 7.23859 6.90581 7.14642 7.09441 6.94791L12.622 1.43212C12.7815 1.27615 12.8686 1.07764 12.8686 0.843679C12.8686 0.375758 12.4914 4.49907e-06 12.0054 4.43534e-06C11.766 4.40395e-06 11.5556 0.0992599 11.3888 0.255233L6.4343 5.22511L1.47982 0.255232C1.31297 0.0992586 1.09535 3.00466e-06 0.863227 2.97422e-06C0.377209 2.91049e-06 8.99951e-07 0.375757 8.38591e-07 0.843677C8.07911e-07 1.07764 0.0870488 1.27615 0.246637 1.43212L5.76693 6.94791C5.96279 7.14642 6.18041 7.23859 6.4343 7.23859Z" fill="#038936"/>
</svg>
