<svg width="23" height="20" viewBox="0 0 23 20" fill="none" xmlns="http://www.w3.org/2000/svg">
<path d="M21.4275 4.20023V11.7315C21.4252 12.5152 21.1111 13.2661 20.5539 13.8203C19.9967 14.3745 19.2416 14.6869 18.4536 14.6893H6.16903C6.10794 14.6893 6.04748 14.7015 5.99121 14.7251C5.93493 14.7487 5.88399 14.7834 5.84139 14.8269L2.21234 18.5392C2.14892 18.604 2.0675 18.6486 1.9785 18.6671C1.8895 18.6857 1.79696 18.6774 1.71271 18.6434C1.62845 18.6094 1.55631 18.5511 1.50551 18.4761C1.4547 18.4011 1.42754 18.3128 1.42749 18.2223V4.20023C1.42982 3.41649 1.74392 2.66551 2.30117 2.11132C2.85841 1.55712 3.61354 1.24475 4.4016 1.24243H18.4536C19.2416 1.2448 19.9967 1.55719 20.5539 2.11138C21.1111 2.66557 21.4252 3.41652 21.4275 4.20023Z" stroke="black" stroke-width="1.5" stroke-miterlimit="10"/>
<path d="M5.52283 6.32007H17.0425" stroke="black" stroke-width="1.5" stroke-miterlimit="10"/>
<path d="M5.52283 9.90027H14.6054" stroke="black" stroke-width="1.5" stroke-miterlimit="10"/>
</svg>
