<svg width="22" height="16" viewBox="0 0 22 16" fill="none" xmlns="http://www.w3.org/2000/svg">
<g clip-path="url(#clip0_5037_1062)">
<path d="M18.7017 0.863892H4.12109C3.75866 0.863892 3.46484 1.16651 3.46484 1.53981V10.6499C3.46484 11.0232 3.75866 11.3258 4.12109 11.3258H18.7017C19.0641 11.3258 19.3579 11.0232 19.3579 10.6499V1.53981C19.3579 1.16651 19.0641 0.863892 18.7017 0.863892Z" stroke="#199950"/>
<path d="M0.896484 12.7439H21.8965C21.8789 13.0891 21.7942 13.4272 21.6472 13.738C21.5002 14.0487 21.294 14.3255 21.0409 14.5525C20.7878 14.7795 20.4929 14.9522 20.1738 15.0594C19.8548 15.1667 19.5181 15.2064 19.1837 15.1769C19.1942 15.1999 3.66696 15.1769 3.66696 15.1769C3.00625 15.1531 2.37303 14.8993 1.86996 14.4575C1.3669 14.0156 1.0238 13.4121 0.896484 12.7439Z" fill="#199950"/>
<path d="M13.3214 13.4792H9.49805V14.4634H13.3214V13.4792Z" fill="#199950"/>
<path d="M10.1543 14.4637V13.4792M9.49805 13.7878H13.3214H9.49805ZM12.6651 13.4792V14.4637V13.4792ZM13.3214 14.1552H9.49805H13.3214Z" stroke="white"/>
</g>
<defs>
<clipPath id="clip0_5037_1062">
<rect width="21" height="15" fill="white" transform="translate(0.896484 0.187988)"/>
</clipPath>
</defs>
</svg>
