<svg width="14" height="14" viewBox="0 0 14 14" fill="none" xmlns="http://www.w3.org/2000/svg">
<path fill-rule="evenodd" clip-rule="evenodd" d="M6.60381 0.368001L4.79956 4.25519L0.485809 4.81081C0.402664 4.82139 0.324307 4.85563 0.260058 4.90945C0.19581 4.96328 0.148375 5.03443 0.123396 5.11443C0.0984175 5.19444 0.0969459 5.27993 0.119157 5.36075C0.141368 5.44157 0.186326 5.51431 0.248684 5.57031L3.43937 8.4425L2.57968 12.7528C2.56314 12.8354 2.57079 12.921 2.60173 12.9993C2.63267 13.0777 2.68558 13.1455 2.7541 13.1945C2.82262 13.2435 2.90383 13.2717 2.98799 13.2757C3.07214 13.2797 3.15566 13.2593 3.2285 13.2169L7.00018 11.0308L10.7736 13.2169C10.8464 13.2591 10.9298 13.2794 11.0139 13.2753C11.0979 13.2713 11.179 13.2431 11.2474 13.1942C11.3158 13.1452 11.3687 13.0776 11.3996 12.9994C11.4306 12.9212 11.4384 12.8357 11.422 12.7532L10.5623 8.4425L13.753 5.57031C13.8152 5.51431 13.86 5.44164 13.8822 5.36092C13.9043 5.2802 13.9029 5.19482 13.878 5.11492C13.853 5.03501 13.8057 4.96392 13.7416 4.9101C13.6775 4.85627 13.5993 4.82197 13.5163 4.81125L9.20256 4.25519L7.397 0.368001C7.36187 0.292355 7.30586 0.228325 7.23556 0.183455C7.16525 0.138586 7.08359 0.114746 7.00018 0.114746C6.91678 0.114746 6.83512 0.138586 6.76481 0.183455C6.69451 0.228325 6.63893 0.292355 6.60381 0.368001Z" fill="#FFC254"/>
</svg>
