<svg width="22" height="20" viewBox="0 0 22 20" fill="none" xmlns="http://www.w3.org/2000/svg">
<g clip-path="url(#clip0_5037_1028)">
<path d="M19.2715 0.866699H3.52148C2.43417 0.866699 1.55273 1.77812 1.55273 2.90241V13.7596C1.55273 14.8839 2.43417 15.7953 3.52148 15.7953H19.2715C20.3588 15.7953 21.2402 14.8839 21.2402 13.7596V2.90241C21.2402 1.77812 20.3588 0.866699 19.2715 0.866699Z" stroke="#199950"/>
<path d="M13.4585 7.16752C13.6528 7.28809 13.8137 7.45866 13.9253 7.6626C14.037 7.86654 14.0957 8.09691 14.0957 8.33127C14.0957 8.56563 14.037 8.796 13.9253 8.99994C13.8137 9.20388 13.6528 9.37444 13.4585 9.49502L10.7587 11.1684C10.5595 11.2917 10.3324 11.3583 10.1003 11.3613C9.86818 11.3642 9.63947 11.3035 9.43748 11.1853C9.23548 11.0671 9.06742 10.8956 8.95043 10.6883C8.83344 10.481 8.77171 10.2453 8.77153 10.0053V6.65588C8.77171 6.41587 8.83344 6.18021 8.95043 5.97291C9.06742 5.76562 9.23548 5.59412 9.43748 5.47589C9.63947 5.35766 9.86818 5.29694 10.1003 5.29991C10.3324 5.30288 10.5595 5.36944 10.7587 5.4928L13.4585 7.16752Z" fill="#199950"/>
<path d="M7.45898 16.4737H15.334V17.8309C15.334 18.1908 15.1957 18.536 14.9496 18.7905C14.7034 19.045 14.3696 19.188 14.0215 19.188H8.77148C8.42339 19.188 8.08955 19.045 7.84341 18.7905C7.59727 18.536 7.45898 18.1908 7.45898 17.8309V16.4737Z" fill="#199950"/>
</g>
<defs>
<clipPath id="clip0_5037_1028">
<rect width="21" height="19" fill="white" transform="translate(0.896484 0.187988)"/>
</clipPath>
</defs>
</svg>
