<svg width="17" height="15" viewBox="0 0 17 15" fill="none" xmlns="http://www.w3.org/2000/svg">
<path d="M14.9766 1.36182H2.97656C2.14814 1.36182 1.47656 2.03339 1.47656 2.86182V10.8618C1.47656 11.6902 2.14814 12.3618 2.97656 12.3618H14.9766C15.805 12.3618 16.4766 11.6902 16.4766 10.8618V2.86182C16.4766 2.03339 15.805 1.36182 14.9766 1.36182Z" stroke="#8C8C8C"/>
<path d="M10.5477 6.00463C10.6958 6.09347 10.8183 6.21915 10.9034 6.36942C10.9885 6.5197 11.0332 6.68944 11.0332 6.86213C11.0332 7.03482 10.9885 7.20456 10.9034 7.35483C10.8183 7.5051 10.6958 7.63078 10.5477 7.71963L8.49069 8.95263C8.33899 9.04353 8.1659 9.09257 7.98907 9.09476C7.81223 9.09695 7.63798 9.05221 7.48408 8.96509C7.33018 8.87797 7.20213 8.7516 7.113 8.59886C7.02386 8.44612 6.97683 8.27247 6.97669 8.09563V5.62763C6.97683 5.45078 7.02386 5.27713 7.113 5.12439C7.20213 4.97165 7.33018 4.84528 7.48408 4.75817C7.63798 4.67105 7.81223 4.62631 7.98907 4.62849C8.1659 4.63068 8.33899 4.67973 8.49069 4.77063L10.5477 6.00463Z" fill="#919191"/>
<path d="M5.97656 12.8618H11.9766V13.8618C11.9766 14.127 11.8712 14.3814 11.6837 14.5689C11.4961 14.7565 11.2418 14.8618 10.9766 14.8618H6.97656C6.71135 14.8618 6.45699 14.7565 6.26946 14.5689C6.08192 14.3814 5.97656 14.127 5.97656 13.8618V12.8618Z" fill="#8C8C8C"/>
</svg>
