<svg width="13" height="8" viewBox="0 0 13 8" fill="none" xmlns="http://www.w3.org/2000/svg">
<path d="M6.43484 -2.81252e-07C6.18095 -2.9235e-07 5.96333 0.0921658 5.77473 0.290677L0.247184 5.80646C0.0875957 5.96244 0.000548093 6.16095 0.000548083 6.39491C0.000548063 6.86283 0.377756 7.23858 0.863773 7.23858C1.10316 7.23858 1.31352 7.13933 1.48036 6.98335L6.43484 2.01347L11.3893 6.98335C11.5562 7.13933 11.7738 7.23858 12.0059 7.23858C12.4919 7.23858 12.8691 6.86283 12.8691 6.39491C12.8691 6.16095 12.7821 5.96244 12.6225 5.80646L7.10221 0.290677C6.90635 0.0921658 6.68873 -2.70154e-07 6.43484 -2.81252e-07Z" fill="#038936"/>
</svg>
